<svg id="magicoon-Bold" height="512" viewBox="0 0 512 512" width="512" xmlns="http://www.w3.org/2000/svg"><g id="chevron-circle-left-Bold"><path id="chevron-circle-left-Bold-2" d="m292.417 207.083-48.917 48.917 48.917 48.917a21.331 21.331 0 1 1 -30.167 30.166l-64-64a21.325 21.325 0 0 1 0-30.166l64-64a21.331 21.331 0 0 1 30.167 30.166zm176.916 48.917c0 117.625-95.708 213.333-213.333 213.333s-213.333-95.708-213.333-213.333 95.708-213.333 213.333-213.333 213.333 95.708 213.333 213.333zm-42.666 0c0-94.1-76.567-170.667-170.667-170.667s-170.667 76.567-170.667 170.667 76.567 170.667 170.667 170.667 170.667-76.567 170.667-170.667z" data-name="chevron-circle-left-Bold"/></g></svg>