<svg id="Layer_1" data-name="Layer 1" xmlns="http://www.w3.org/2000/svg" viewBox="0 0 452.58 177.63"><defs><style>.cls-1{fill:#6d6e71;}.cls-2{fill:#333132;}.cls-3{fill:#4f9fa6;}</style></defs><path class="cls-1" d="M455.22,328.35h7.94c7.45,0,12.7,4.66,12.7,11.26s-5.25,11.29-12.7,11.29h-7.94Zm8.37,18.84c4.76,0,8.11-3.15,8.11-7.58s-3.35-7.55-8.11-7.55h-4.26v15.13Z" transform="translate(-177.99 -206.8)"/><path class="cls-1" d="M494.17,332.1v5.44h11.64v3.74H494.17v5.88H507v3.74h-17V328.35h17v3.75Z" transform="translate(-177.99 -206.8)"/><path class="cls-1" d="M519.82,347.61l2.36-2.92a10.73,10.73,0,0,0,7.42,3.06c2.79,0,4.23-1.38,4.23-3,0-1.87-1.61-2.49-5.22-3.35-4.66-1.08-7.91-2.42-7.91-6.66,0-3.93,3.35-6.82,8.11-6.82a12.51,12.51,0,0,1,8.53,3.15l-2.23,3a10,10,0,0,0-6.47-2.66c-2.26,0-3.8,1.38-3.8,2.95,0,1.84,1.67,2.5,5.25,3.32,4.69,1.05,7.84,2.56,7.84,6.66s-3.08,6.89-8.46,6.89A13.73,13.73,0,0,1,519.82,347.61Z" transform="translate(-177.99 -206.8)"/><path class="cls-1" d="M551.9,328.35H556V350.9H551.9Z" transform="translate(-177.99 -206.8)"/><path class="cls-1" d="M581.27,338.49h9.61v9.12a12.87,12.87,0,0,1-9,3.68,11.67,11.67,0,1,1,0-23.33,12.88,12.88,0,0,1,9,3.64L588,334.33a8.29,8.29,0,0,0-6-2.63,7.93,7.93,0,0,0,0,15.85,8.73,8.73,0,0,0,5-1.61v-4.1h-5.61Z" transform="translate(-177.99 -206.8)"/><path class="cls-1" d="M605.71,328.35h4.1l11.91,15.85V328.35h4.07V350.9h-4.07l-11.91-15.85V350.9h-4.1Z" transform="translate(-177.99 -206.8)"/><path class="cls-1" d="M465.33,371.64h9.61v9.12a12.83,12.83,0,0,1-8.95,3.68,11.67,11.67,0,1,1,0-23.33,12.84,12.84,0,0,1,8.95,3.64L472,367.48a8.23,8.23,0,0,0-6-2.63,7.93,7.93,0,0,0,0,15.85,8.72,8.72,0,0,0,4.95-1.61V375h-5.61Z" transform="translate(-177.99 -206.8)"/><path class="cls-1" d="M503.26,384l-5.32-7.58h-4.36V384h-4.11V361.5h9.82c4.82,0,8.43,3.09,8.43,7.48a7.32,7.32,0,0,1-5.45,7.06l5.64,8Zm-9.68-11.35h5.25c2.79,0,4.72-1.41,4.72-3.71s-1.93-3.7-4.72-3.7h-5.25Z" transform="translate(-177.99 -206.8)"/><path class="cls-1" d="M520.74,372.76a11.83,11.83,0,1,1,11.84,11.68A11.88,11.88,0,0,1,520.74,372.76Zm19.46,0a7.65,7.65,0,1,0-7.62,7.94A7.86,7.86,0,0,0,540.2,372.76Z" transform="translate(-177.99 -206.8)"/><path class="cls-1" d="M558.4,374.43V361.5h4.1v12.8c0,3.74,2.43,6.43,5.84,6.43s5.88-2.69,5.88-6.43V361.5h4.06v12.93a9.94,9.94,0,1,1-19.88,0Z" transform="translate(-177.99 -206.8)"/><path class="cls-1" d="M593.17,361.5H603c4.83,0,8.44,3.09,8.44,7.48s-3.61,7.48-8.44,7.48h-5.7V384h-4.11Zm9.36,11.19c2.78,0,4.72-1.41,4.72-3.71s-1.94-3.7-4.72-3.7h-5.25v7.41Z" transform="translate(-177.99 -206.8)"/><path class="cls-2" d="M276.36,256.9c0,27.26-22.66,49.6-50.25,49.6A48.23,48.23,0,0,1,194.24,294v3.77c0,15.61.17,45,.17,51.4a1.69,1.69,0,0,1-1.81,1.64H179.79a1.55,1.55,0,0,1-1.64-1.64c0-6.57.16-35.79.16-51.89V231.44c0-8.21-.32-15.11-.32-20.86a1.54,1.54,0,0,1,1.64-1.64h12.81a1.68,1.68,0,0,1,1.8,1.64v8.71a47.79,47.79,0,0,1,31.87-12.49A50.33,50.33,0,0,1,276.36,256.9Zm-82.12-8.22v16.43c0,10.67,12.65,26.61,31.87,26.61,19,0,34.32-16.1,34.32-34.82,0-19.22-15.27-35.31-34.32-35.31C206.89,221.59,194.24,237.68,194.24,248.68Z" transform="translate(-177.99 -206.8)"/><path class="cls-2" d="M293.77,256.57c0-27.26,22.5-49.6,50.09-49.6,27.43,0,49.93,22.34,49.93,49.6a50,50,0,1,1-100,0Zm84.09,0c0-18.73-14.94-34.82-34-34.82s-34.16,16.09-34.16,34.82v.16c0,19,15.11,35.15,34.16,35.15S377.86,275.78,377.86,256.57Z" transform="translate(-177.99 -206.8)"/><path class="cls-2" d="M513,256.9c0,27.26-22.66,49.6-50.25,49.6A48.23,48.23,0,0,1,430.85,294v3.77c0,15.61.17,45.06.17,51.46a1.69,1.69,0,0,1-1.81,1.65H416.4a1.56,1.56,0,0,1-1.64-1.65c0-6.57.16-35.85.16-51.95V231.44c0-8.21-.33-15.11-.33-20.86a1.55,1.55,0,0,1,1.65-1.64h12.81a1.68,1.68,0,0,1,1.8,1.64v8.71a47.79,47.79,0,0,1,31.87-12.49A50.33,50.33,0,0,1,513,256.9Zm-82.12-8.22v16.43c0,10.67,12.65,26.61,31.87,26.61,19,0,34.32-16.1,34.32-34.82,0-19.22-15.27-35.31-34.32-35.31C443.5,221.59,430.85,237.68,430.85,248.68Z" transform="translate(-177.99 -206.8)"/><path class="cls-2" d="M530.38,256.57c0-27.26,22.5-49.6,49.93-49.6s50.25,22.17,50.25,49.44c0,4.1-1.64,7.71-5.25,7.71H547.13c3.29,15.93,16.59,27.76,33.51,27.76,12.81,0,23.48-6.08,29.72-15.6a1.65,1.65,0,0,1,2.46-.5l9.37,7.23a1.69,1.69,0,0,1,.33,2.46,51.19,51.19,0,0,1-42,21.19A50.18,50.18,0,0,1,530.38,256.57Zm16.75-7.23H614a34.67,34.67,0,0,0-33.67-27.59A33.65,33.65,0,0,0,547.13,249.34Z" transform="translate(-177.99 -206.8)"/><path class="cls-3" d="M343.86,332A33.92,33.92,0,0,1,374,350.83h17.06a50.06,50.06,0,0,0-94.56,0h17.1A34.17,34.17,0,0,1,343.86,332Z" transform="translate(-177.99 -206.8)"/></svg>