<?xml version="1.0" encoding="utf-8"?>
<!-- Generator: Adobe Illustrator 19.1.0, SVG Export Plug-In . SVG Version: 6.00 Build 0)  -->
<svg version="1.1" id="Layer_1" xmlns="http://www.w3.org/2000/svg" xmlns:xlink="http://www.w3.org/1999/xlink" x="0px" y="0px"
	 viewBox="0 0 750 250" enable-background="new 0 0 750 250" xml:space="preserve">
<g>
	<path fill-rule="evenodd" clip-rule="evenodd" fill="#FFFFFF" d="M37,232.6c0,0-1.5-2.7-2.1-4.3l-13.4-33.2c-0.3-0.8-4.6-0.8-4.9,0
		L2.2,232.4c-0.2,0.5-0.1,0.9,0.5,0.9h4.5c0.6,0,0.9-0.2,1-0.7l3.1-9.9c0.1-0.3,0.4-0.5,0.8-0.5h11.9c0.3,0,0.7,0.2,0.8,0.5l2,5.5
		c0.6,1.6,1.5,4.4,1.5,4.4c0.2,0.5,0.6,0.8,1.2,0.8h6.9C37.1,233.4,37.3,233.1,37,232.6 M23.7,218.9c0.1,0.3-0.1,0.6-0.4,0.6H13.2
		c-0.3,0-0.5-0.3-0.4-0.6l4.9-14.3c0.1-0.3,0.5-0.3,0.6,0L23.7,218.9z"/>
	<path fill-rule="evenodd" clip-rule="evenodd" fill="#FFFFFF" d="M118.8,232.6l-1.8-2.4l-8.5-12.1c-1.2-1.8-1.9-2.6-2.4-3
		c-0.2-0.2-0.2-0.4,0.1-0.5c5.3-1.2,9.1-5.3,9.1-10.6c0-5.3-4.6-9.1-10.2-9.1H88.5c-0.5,0-0.6,0.3-0.6,0.8l0.1,18.5l-0.1,18.5
		c0,0.5,0.3,0.8,0.8,0.8h5.6c0.6,0,0.8-0.3,0.8-0.8l-0.1-16.2c0-0.6,0.6-1,1.2-1h2.4c1.2,0,2.4,0.8,3.3,2.6l8,14.7
		c0.3,0.4,0.5,0.8,1.1,0.8h7.1C118.8,233.4,119.2,233.1,118.8,232.6 M107.7,204.4c0,6.2-3.5,8.4-9.2,8.4h-2.2
		c-0.6,0-1.2-0.6-1.2-1.2l0.1-12.8c0-0.8,0.8-1.5,1.7-1.5h4.2C105,197.4,107.7,200.4,107.7,204.4"/>
	<path fill="#FFFFFF" d="M197.8,229.2c0.2-0.2,0.2-0.4,0-0.6l-1.6-1.8c-0.2-0.2-0.4-0.1-0.6,0.1c-2.2,2-5.4,3.8-8.1,3.8
		c-6,0-11-3.8-11-16.4c0-10.6,3.1-16.1,8.9-16.1c5.6,0,7.2,0.7,10.5,1.8c0.5,0.1,0.9-0.1,1-0.6l0.5-3.8c0-0.5-0.3-0.6-0.8-0.6h-11
		c-9.6,0-17,7.3-17,19.3c0,14.8,8.1,19.9,17.1,19.9C190.4,234.1,195,232.4,197.8,229.2"/>
	<path fill="#FFFFFF" d="M281.6,232.6l-0.1-18.4l0.1-18.5c0-0.5-0.3-0.8-0.8-0.8h-5.6c-0.6,0-0.8,0.3-0.8,0.8l0.1,16.5
		c0,0.3-0.2,0.4-0.4,0.4h-14.7c-0.3,0-0.4-0.2-0.4-0.4l0.1-16.5c0-0.5-0.3-0.8-0.8-0.8h-5.6c-0.6,0-0.8,0.3-0.8,0.8l0.1,18.5
		l-0.1,18.4c0,0.5,0.3,0.8,0.8,0.8h5.6c0.6,0,0.8-0.3,0.8-0.8l-0.1-16.9c0-0.3,0.2-0.4,0.4-0.4h14.7c0.3,0,0.4,0.2,0.4,0.4
		l-0.1,16.9c0,0.5,0.3,0.8,0.8,0.8h5.6C281.3,233.4,281.6,233.1,281.6,232.6"/>
	<path fill="#FFFFFF" d="M346.1,232.6l-0.1-18.5l0.1-18.5c0-0.5-0.3-0.8-0.8-0.8h-5.6c-0.6,0-0.8,0.3-0.8,0.8l0.1,18.5l-0.1,18.5
		c0,0.5,0.3,0.8,0.8,0.8h5.6C345.9,233.4,346.1,233.1,346.1,232.6"/>
	<path fill="#FFFFFF" d="M432.1,195.5c0.1-0.5-0.5-0.6-1-0.6h-28.6c-0.5,0-1.1,0.1-1,0.6l0.2,2.8c0.1,0.5,0.3,0.6,0.8,0.6
		c0,0,6.6-0.8,9.8-0.8c0.4,0,0.9,0.5,0.9,1.1l0.1,14.8l-0.1,18.5c0,0.5,0.3,0.8,0.8,0.8h5.6c0.6,0,0.8-0.3,0.8-0.8l-0.1-18.5
		l0.1-14.8c0-0.6,0.4-1.1,0.9-1.1c3.2,0,9.8,0.8,9.8,0.8c0.5,0.1,0.8-0.1,0.8-0.6L432.1,195.5z"/>
	<path fill="#FFFFFF" d="M510.5,232.7v-3.3c0-0.5-0.4-0.6-1-0.6c0,0-7.6,1.2-10.9,1.2h-5.1c-0.8,0-1.5-0.7-1.5-1.5l-0.1-13.1
		c0-0.3,0.2-0.5,0.4-0.5l11.5,0.3c0.3,0,0.6-0.1,0.6-0.4v-3c0-0.3-0.3-0.4-0.6-0.4l-11.5,0.3c-0.3,0-0.4-0.2-0.4-0.5l0.1-11.7
		c0-0.8,0.7-1.5,1.5-1.5h5.1c3.3,0,10.2,1,10.2,1c0.5,0.1,0.9-0.1,0.9-0.6v-3c0-0.5-0.4-0.6-0.9-0.6h-23.2c-0.6,0-0.8,0.3-0.8,0.8
		l0.1,18.5l-0.1,18.5c0,0.5,0.3,0.8,0.8,0.8h23.9C510.1,233.4,510.5,233.3,510.5,232.7"/>
	<path fill="#FFFFFF" d="M591,229.2c0.2-0.2,0.2-0.4,0-0.6l-1.6-1.8c-0.2-0.2-0.4-0.1-0.6,0.1c-2.2,2-5.4,3.8-8.1,3.8
		c-6,0-11-3.8-11-16.4c0-10.6,3.1-16.1,8.8-16.1c5.7,0,7.2,0.7,10.5,1.8c0.5,0.1,0.9-0.1,0.9-0.6l0.4-3.8c0-0.5-0.3-0.6-0.8-0.6h-11
		c-9.6,0-17,7.3-17,19.3c0,14.8,8.1,19.9,17.1,19.9C583.7,234.1,588.2,232.4,591,229.2"/>
	<path fill="#FFFFFF" d="M672.5,195.5c0.1-0.5-0.5-0.6-1-0.6h-28.6c-0.5,0-1.1,0.1-1,0.6l0.2,2.8c0.1,0.5,0.3,0.6,0.8,0.6
		c0,0,6.6-0.8,9.8-0.8c0.4,0,0.9,0.5,0.9,1.1l0.1,14.8l-0.1,18.5c0,0.5,0.3,0.8,0.8,0.8h5.6c0.6,0,0.8-0.3,0.8-0.8l-0.1-18.5
		l0.1-14.8c0-0.6,0.4-1.1,0.9-1.1c3.2,0,9.8,0.8,9.8,0.8c0.5,0.1,0.8-0.1,0.8-0.6L672.5,195.5z"/>
	<path fill="#FFFFFF" d="M747.9,223.2c0-15.9-21.6-11-21.6-21.3c0-3.1,2.8-4.9,5.7-4.9c5.8,0,9.2,2,11.9,3.6c0.4,0.3,1,0.1,1-0.3
		l0.9-4.3c0.1-0.4,0-0.8-0.4-0.8c-2.9-0.2-7.5-1.2-13.3-1.2c-7.2,0-11.6,3.8-11.6,10.2c0,14.5,21.5,10.3,21.5,20.4
		c0,3.8-4,6.5-7.5,6.5c-4.9,0-9.2-2.2-11.8-4.9c-0.4-0.4-1-0.4-1.1,0.1l-1.2,4.3c-0.1,0.4-0.1,0.9,0.4,1.1c3.1,1.3,7.2,2.6,13.1,2.6
		C741.9,234.1,747.9,231,747.9,223.2"/>
	<path fill-rule="evenodd" clip-rule="evenodd" fill="#FFFFFF" d="M290.5,29.4c-16.4,0-29.6,4.2-39.6,12.6c-10,8.4-15,19.7-15,33.8
		c0,14.2,5,23,14.9,31.5c9.9,8.5,23.1,12.7,39.7,12.7c16.4,0,29.5-4.2,39.3-12.7c9.8-8.4,14.7-17.3,14.7-31.5
		c0-14.1-4.9-25.3-14.8-33.8C319.8,33.6,306.7,29.4,290.5,29.4 M290.5,0c36.9,0,65.8,8.4,86.6,21.5c20.8,13.2,31.2,31.4,31.2,54.7
		c0,23.4-10.4,39.1-31.2,52.2c-20.8,13.1-49.6,21.2-86.6,21.2c-37.1,0-66.1-8.1-87-21.2c-20.9-13.1-31.3-28.8-31.3-52.2
		c0-23.3,10.4-41.6,31.4-54.7C224.5,8.4,253.4,0,290.5,0"/>
	<path fill-rule="evenodd" clip-rule="evenodd" fill="#FFFFFF" d="M468.2,28.7V70h16.7c12.7,0,22.3-1.7,28.8-5
		c6.5-3.3,9.7-8.3,9.7-14.8c0-7.1-3.2-12.4-9.7-16.1c-6.5-3.6-15.9-5.5-28.4-5.5H468.2z M404.8,3.1h84.9c33.2,0,57.8,3.7,73.7,11
		c15.9,7.4,23.9,18.7,23.9,34.2c0,15.5-7.8,27.2-23.6,35.2c-15.7,8-38.6,12.1-68.6,12.1h-27.1v49.5h-63.4V3.1z"/>
	<polygon fill="#FFFFFF" points="582.6,3 747.7,3 747.7,28.6 646,28.6 646,58.3 741.9,58.3 741.9,85.4 646,85.4 646,117.7 
		747.7,117.7 747.7,145.1 582.6,145.1 	"/>
	<path fill-rule="evenodd" clip-rule="evenodd" fill="#FFFFFF" d="M65.4,28.7V70h16.7c12.7,0,22.3-1.7,28.7-5
		c6.5-3.3,9.7-8.3,9.7-14.8c0-7.1-3.2-12.4-9.7-16.1c-6.5-3.6-15.9-5.5-28.4-5.5H65.4z M2,3.1h84.9c33.2,0,57.8,3.7,73.7,11
		c15.9,7.4,23.9,18.7,23.9,34.2c0,15.5-7.9,27.2-23.6,35.2c-15.7,8-38.6,12.1-68.5,12.1H65.4v49.5H2V3.1z"/>
	<path fill-rule="evenodd" clip-rule="evenodd" fill="#FFFFFF" d="M290.5,29.4c-16.4,0-29.6,4.2-39.6,12.6c-10,8.4-15,19.7-15,33.8
		c0,14.2,5,23,14.9,31.5c9.9,8.5,23.1,12.7,39.7,12.7c16.4,0,29.5-4.2,39.3-12.7c9.8-8.4,14.7-17.3,14.7-31.5
		c0-14.1-4.9-25.3-14.8-33.8C319.8,33.6,306.7,29.4,290.5,29.4 M290.5,0c36.9,0,65.8,8.4,86.6,21.5c20.8,13.2,31.2,31.4,31.2,54.7
		c0,23.4-10.4,39.1-31.2,52.2c-20.8,13.1-49.6,21.2-86.6,21.2c-37.1,0-66.1-8.1-87-21.2c-20.9-13.1-31.3-28.8-31.3-52.2
		c0-23.3,10.4-41.6,31.4-54.7C224.5,8.4,253.4,0,290.5,0"/>
	<path fill-rule="evenodd" clip-rule="evenodd" fill="#FFFFFF" d="M468.2,28.7V70h16.7c12.7,0,22.3-1.7,28.8-5
		c6.5-3.3,9.7-8.3,9.7-14.8c0-7.1-3.2-12.4-9.7-16.1c-6.5-3.6-15.9-5.5-28.4-5.5H468.2z M404.8,3.1h84.9c33.2,0,57.8,3.7,73.7,11
		c15.9,7.4,23.9,18.7,23.9,34.2c0,15.5-7.8,27.2-23.6,35.2c-15.7,8-38.6,12.1-68.6,12.1h-27.1v49.5h-63.4V3.1z"/>
	<polygon fill="#FFFFFF" points="582.6,3 747.7,3 747.7,28.6 646,28.6 646,58.3 741.9,58.3 741.9,85.4 646,85.4 646,117.7 
		747.7,117.7 747.7,145.1 582.6,145.1 	"/>
	<path fill-rule="evenodd" clip-rule="evenodd" fill="#FFFFFF" d="M65.4,28.7V70h16.7c12.7,0,22.3-1.7,28.7-5
		c6.5-3.3,9.7-8.3,9.7-14.8c0-7.1-3.2-12.4-9.7-16.1c-6.5-3.6-15.9-5.5-28.4-5.5H65.4z M2,3.1h84.9c33.2,0,57.8,3.7,73.7,11
		c15.9,7.4,23.9,18.7,23.9,34.2c0,15.5-7.9,27.2-23.6,35.2c-15.7,8-38.6,12.1-68.5,12.1H65.4v49.5H2V3.1z"/>
</g>
</svg>
