<?xml version="1.0" encoding="utf-8"?>
<!-- Generator: Adobe Illustrator 19.1.0, SVG Export Plug-In . SVG Version: 6.00 Build 0)  -->
<svg version="1.1" id="Layer_1" xmlns="http://www.w3.org/2000/svg" xmlns:xlink="http://www.w3.org/1999/xlink" x="0px" y="0px"
	 viewBox="0 0 792 250" enable-background="new 0 0 792 250" xml:space="preserve">
<g>
	<path fill-rule="evenodd" clip-rule="evenodd" fill="#542F64" d="M39,245.8c0,0-1.6-2.8-2.2-4.5l-14.2-35.1c-0.3-0.9-4.9-0.9-5.2,0
		L2.2,245.6c-0.2,0.5-0.1,1,0.5,1h4.7c0.6,0,0.9-0.2,1.1-0.7l3.3-10.4c0.1-0.3,0.4-0.5,0.8-0.5h12.6c0.3,0,0.7,0.2,0.8,0.5l2.2,5.8
		c0.6,1.7,1.6,4.6,1.6,4.6c0.2,0.5,0.6,0.8,1.2,0.8h7.3C39.1,246.6,39.3,246.3,39,245.8 M24.9,231.3c0.1,0.3-0.1,0.7-0.4,0.7H13.8
		c-0.3,0-0.5-0.3-0.5-0.7l5.2-15.1c0.1-0.3,0.5-0.3,0.7,0L24.9,231.3z"/>
	<path fill-rule="evenodd" clip-rule="evenodd" fill="#542F64" d="M125.4,245.8l-1.9-2.6l-8.9-12.8c-1.3-1.9-2-2.8-2.5-3.2
		c-0.3-0.2-0.3-0.5,0.2-0.6c5.6-1.3,9.6-5.6,9.6-11.2c0-5.6-4.8-9.6-10.8-9.6H93.4c-0.5,0-0.6,0.3-0.6,0.8l0.1,19.5l-0.1,19.5
		c0,0.5,0.3,0.8,0.9,0.8h6c0.6,0,0.9-0.3,0.9-0.8l-0.1-17.1c0-0.6,0.7-1.1,1.3-1.1h2.5c1.3,0,2.5,0.9,3.5,2.7l8.5,15.5
		c0.3,0.4,0.5,0.8,1.1,0.8h7.5C125.4,246.6,125.8,246.2,125.4,245.8 M113.7,216c0,6.5-3.7,8.9-9.7,8.9h-2.3c-0.6,0-1.3-0.6-1.3-1.2
		l0.1-13.5c0-0.9,0.9-1.6,1.8-1.6h4.4C110.8,208.6,113.7,211.7,113.7,216"/>
	<path fill="#542F64" d="M208.8,242.1c0.2-0.2,0.2-0.4,0-0.6l-1.7-1.9c-0.2-0.2-0.5-0.1-0.7,0.1c-2.3,2.1-5.7,4.1-8.5,4.1
		c-6.3,0-11.6-4.1-11.6-17.4c0-11.2,3.3-17,9.4-17c6,0,7.6,0.7,11.1,1.9c0.5,0.1,0.9-0.1,1-0.7l0.5-4c0-0.5-0.3-0.7-0.8-0.7h-11.7
		c-10.1,0-18,7.7-18,20.4c0,15.6,8.5,21.1,18.1,21.1C201,247.4,205.9,245.5,208.8,242.1"/>
	<path fill="#542F64" d="M297.4,245.8l-0.1-19.4l0.1-19.6c0-0.5-0.3-0.8-0.9-0.8h-6c-0.6,0-0.9,0.3-0.9,0.8l0.1,17.4
		c0,0.3-0.2,0.5-0.5,0.5h-15.5c-0.3,0-0.5-0.2-0.5-0.5l0.1-17.4c0-0.5-0.3-0.8-0.9-0.8h-6c-0.6,0-0.9,0.3-0.9,0.8l0.1,19.6
		l-0.1,19.4c0,0.5,0.3,0.8,0.9,0.8h6c0.6,0,0.9-0.3,0.9-0.8l-0.1-17.8c0-0.3,0.2-0.5,0.5-0.5h15.5c0.3,0,0.5,0.2,0.5,0.5l-0.1,17.8
		c0,0.5,0.3,0.8,0.9,0.8h6C297.1,246.6,297.4,246.3,297.4,245.8"/>
	<path fill="#542F64" d="M365.6,245.8l-0.1-19.5l0.1-19.5c0-0.5-0.3-0.8-0.9-0.8h-6c-0.6,0-0.9,0.3-0.9,0.8l0.1,19.5l-0.1,19.5
		c0,0.5,0.3,0.8,0.9,0.8h6C365.3,246.6,365.6,246.3,365.6,245.8"/>
	<path fill="#542F64" d="M456.4,206.6c0.1-0.5-0.5-0.7-1.1-0.7h-30.2c-0.5,0-1.1,0.1-1.1,0.7l0.2,3c0.1,0.5,0.3,0.7,0.9,0.6
		c0,0,6.9-0.8,10.3-0.8c0.5,0,0.9,0.5,0.9,1.2l0.1,15.7l-0.1,19.5c0,0.5,0.3,0.8,0.9,0.8h6c0.6,0,0.9-0.3,0.9-0.8l-0.1-19.5
		l0.1-15.7c0-0.7,0.5-1.2,0.9-1.2c3.4,0,10.3,0.8,10.3,0.8c0.5,0.1,0.8-0.1,0.9-0.6L456.4,206.6z"/>
	<path fill="#542F64" d="M539.3,245.9v-3.5c0-0.5-0.5-0.7-1-0.6c0,0-8,1.3-11.5,1.3h-5.4c-0.9,0-1.6-0.8-1.6-1.6l-0.1-13.8
		c0-0.3,0.2-0.5,0.5-0.5l12.2,0.3c0.3,0,0.7-0.1,0.7-0.5v-3.2c0-0.3-0.3-0.5-0.7-0.5l-12.2,0.3c-0.3,0-0.5-0.2-0.5-0.5l0.1-12.3
		c0-0.9,0.7-1.6,1.6-1.6h5.4c3.5,0,10.7,1,10.7,1c0.5,0.1,1-0.1,1-0.6v-3.2c0-0.5-0.5-0.7-1-0.7H513c-0.6,0-0.9,0.3-0.9,0.8
		l0.1,19.5l-0.1,19.5c0,0.5,0.3,0.8,0.9,0.8h25.3C538.8,246.6,539.3,246.4,539.3,245.9"/>
	<path fill="#542F64" d="M624.3,242.1c0.2-0.2,0.2-0.4,0-0.6l-1.7-1.9c-0.2-0.2-0.5-0.1-0.7,0.1c-2.3,2.1-5.7,4.1-8.5,4.1
		c-6.3,0-11.6-4.1-11.6-17.4c0-11.2,3.3-17,9.3-17c6,0,7.6,0.7,11.1,1.9c0.5,0.1,0.9-0.1,1-0.7l0.5-4c0-0.5-0.3-0.7-0.8-0.7h-11.7
		c-10.1,0-18,7.7-18,20.4c0,15.6,8.6,21.1,18.1,21.1C616.6,247.4,621.4,245.5,624.3,242.1"/>
	<path fill="#542F64" d="M710.4,206.6c0.1-0.5-0.5-0.7-1.1-0.7h-30.3c-0.5,0-1.2,0.1-1.1,0.7l0.2,3c0.1,0.5,0.3,0.7,0.9,0.6
		c0,0,6.9-0.8,10.3-0.8c0.5,0,0.9,0.5,0.9,1.2l0.1,15.7l-0.1,19.5c0,0.5,0.3,0.8,0.9,0.8h6c0.6,0,0.9-0.3,0.9-0.8l-0.1-19.5
		l0.1-15.7c0-0.7,0.5-1.2,0.9-1.2c3.4,0,10.3,0.8,10.3,0.8c0.5,0.1,0.8-0.1,0.9-0.6L710.4,206.6z"/>
	<path fill="#542F64" d="M790.1,235.8c0-16.8-22.8-11.7-22.8-22.5c0-3.3,3-5.2,6-5.2c6.2,0,9.8,2.2,12.5,3.8c0.5,0.3,1,0.2,1.1-0.3
		l0.9-4.5c0.2-0.4,0-0.9-0.5-0.9c-3.1-0.2-7.9-1.2-14-1.2c-7.6,0-12.3,4.1-12.3,10.8c0,15.3,22.7,10.9,22.7,21.6
		c0,4-4.2,6.8-7.9,6.8c-5.1,0-9.7-2.3-12.5-5.2c-0.4-0.5-1-0.5-1.2,0.1l-1.2,4.6c-0.1,0.4-0.1,0.9,0.4,1.1c3.3,1.4,7.6,2.8,13.9,2.8
		C783.8,247.4,790.1,244.1,790.1,235.8"/>
	<path fill-rule="evenodd" clip-rule="evenodd" fill="#542F64" d="M306.8,31.1c-17.3,0-31.3,4.5-41.8,13.4
		c-10.5,8.9-15.8,20.8-15.8,35.7c0,15,5.2,24.3,15.7,33.2c10.5,8.9,24.5,13.4,41.9,13.4c17.3,0,31.2-4.5,41.5-13.4
		c10.4-8.9,15.6-18.2,15.6-33.3c0-14.9-5.2-26.7-15.7-35.7C337.8,35.5,324,31.1,306.8,31.1 M306.8,0c39,0,69.5,8.8,91.4,22.7
		c22,13.9,33,33.2,33,57.8c0,24.7-11,41.3-33,55.1c-22,13.8-52.5,22.4-91.4,22.4c-39.2,0-69.9-8.6-91.9-22.4
		c-22-13.8-33-30.4-33-55.1c0-24.6,11-43.9,33.1-57.8C237,8.8,267.6,0,306.8,0"/>
	<path fill-rule="evenodd" clip-rule="evenodd" fill="#542F64" d="M494.6,30.3V74h17.6c13.4,0,23.6-1.8,30.4-5.3
		c6.8-3.5,10.2-8.7,10.2-15.7c0-7.5-3.4-13.1-10.2-17c-6.8-3.8-16.8-5.8-30-5.8H494.6z M427.6,3.3h89.7c35.1,0,61.1,3.9,77.9,11.7
		c16.8,7.8,25.3,19.8,25.3,36.1c0,16.3-8.3,28.7-24.9,37.2C579,96.8,554.9,101,523.2,101h-28.6v52.3h-67V3.3z"/>
	<polygon fill="#542F64" points="615.5,3.2 789.9,3.2 789.9,30.2 682.4,30.2 682.4,61.6 783.7,61.6 783.7,90.2 682.4,90.2 
		682.4,124.4 789.9,124.4 789.9,153.3 615.5,153.3 	"/>
	<path fill-rule="evenodd" clip-rule="evenodd" fill="#542F64" d="M68.9,30.3V74h17.7c13.4,0,23.5-1.8,30.4-5.3
		c6.8-3.5,10.2-8.7,10.2-15.7c0-7.5-3.4-13.1-10.2-17c-6.8-3.8-16.8-5.8-30-5.8H68.9z M2,3.3h89.7c35.1,0,61.1,3.9,77.9,11.7
		c16.8,7.8,25.3,19.8,25.3,36.1c0,16.3-8.3,28.7-24.9,37.2c-16.6,8.5-40.7,12.7-72.4,12.7H68.9v52.3H2V3.3z"/>
	<path fill-rule="evenodd" clip-rule="evenodd" fill="#542F64" d="M306.8,31.1c-17.3,0-31.3,4.5-41.8,13.4
		c-10.5,8.9-15.8,20.8-15.8,35.7c0,15,5.2,24.3,15.7,33.2c10.5,8.9,24.5,13.4,41.9,13.4c17.3,0,31.2-4.5,41.5-13.4
		c10.4-8.9,15.6-18.2,15.6-33.3c0-14.9-5.2-26.7-15.7-35.7C337.8,35.5,324,31.1,306.8,31.1 M306.8,0c39,0,69.5,8.8,91.4,22.7
		c22,13.9,33,33.2,33,57.8c0,24.7-11,41.3-33,55.1c-22,13.8-52.5,22.4-91.4,22.4c-39.2,0-69.9-8.6-91.9-22.4
		c-22-13.8-33-30.4-33-55.1c0-24.6,11-43.9,33.1-57.8C237,8.8,267.6,0,306.8,0"/>
	<path fill-rule="evenodd" clip-rule="evenodd" fill="#542F64" d="M494.6,30.3V74h17.6c13.4,0,23.6-1.8,30.4-5.3
		c6.8-3.5,10.2-8.7,10.2-15.7c0-7.5-3.4-13.1-10.2-17c-6.8-3.8-16.8-5.8-30-5.8H494.6z M427.6,3.3h89.7c35.1,0,61.1,3.9,77.9,11.7
		c16.8,7.8,25.3,19.8,25.3,36.1c0,16.3-8.3,28.7-24.9,37.2C579,96.8,554.9,101,523.2,101h-28.6v52.3h-67V3.3z"/>
	<polygon fill="#542F64" points="615.5,3.2 789.9,3.2 789.9,30.2 682.4,30.2 682.4,61.6 783.7,61.6 783.7,90.2 682.4,90.2 
		682.4,124.4 789.9,124.4 789.9,153.3 615.5,153.3 	"/>
	<path fill-rule="evenodd" clip-rule="evenodd" fill="#542F64" d="M68.9,30.3V74h17.7c13.4,0,23.5-1.8,30.4-5.3
		c6.8-3.5,10.2-8.7,10.2-15.7c0-7.5-3.4-13.1-10.2-17c-6.8-3.8-16.8-5.8-30-5.8H68.9z M2,3.3h89.7c35.1,0,61.1,3.9,77.9,11.7
		c16.8,7.8,25.3,19.8,25.3,36.1c0,16.3-8.3,28.7-24.9,37.2c-16.6,8.5-40.7,12.7-72.4,12.7H68.9v52.3H2V3.3z"/>
</g>
</svg>
